# xmcd
#
# Track frame offsets:
#	182
#	15890
#	32625
#	45015
#	61147
#	76905
#	94715
#	109340
#	129822
#	144175
#	159170
#	175590
#	187745
#	202855
#	220707
#
# Disc length: 3288 seconds
#
# Revision: 1
# Processed by: cddbd v1.5PL3 Copyright (c) Steve Scherf et al.
# Submitted via: audiograbber 1.83.01
#
DISCID=9c0cd60f
DTITLE=Brent Moyer - Live At The Bluebird Cafe
DYEAR=1993
DGENRE=Country
TTITLE0=She's Living Proof
TTITLE1=Four Red Lights
TTITLE2=Absolutely, Positively, Totally
TTITLE3=Teenage Thing
TTITLE4=Reckless Youth
TTITLE5=Love On A Tear
TTITLE6=Hard To Rock
TTITLE7=Tennessee Tears
TTITLE8=Getting Over You Is Overdue
TTITLE9=Me, Myself and I
TTITLE10=Bluer Than A Blue Wyoming Sky
TTITLE11=That's What You Do With The Blues
TTITLE12=That's The Truth
TTITLE13=Feel The Night
TTITLE14=The Slow Lane
EXTD=
EXTT0=
EXTT1=
EXTT2=
EXTT3=
EXTT4=
EXTT5=
EXTT6=
EXTT7=
EXTT8=
EXTT9=
EXTT10=
EXTT11=
EXTT12=
EXTT13=
EXTT14=
PLAYORDER=
